<mxfile host="app.diagrams.net" modified="2023-06-28T03:15:54.930Z" agent="Mozilla/5.0 (Windows NT 10.0; Win64; x64) AppleWebKit/537.36 (KHTML, like Gecko) Chrome/114.0.0.0 Safari/537.36" version="21.5.1" etag="EK66XIfMXh-DKpolC1fn" type="github">
  <diagram name="Page-1" id="ZOKIUnTnAUsoEddpGOZ3">
    <mxGraphModel>
      <root>
        <mxCell id="0" />
        <mxCell id="1" parent="0" />
      </root>
    </mxGraphModel>
  </diagram>
</mxfile>
